# xmcd CD database file
# Copyright (C) 1993-1998 Ti Kan
# 
# Track frame offsets:
#     180
#     21668
#     41721
#     59474
#     76429
#     92567
#     112199
#     129616
#     144352
#     166699
# 
# Disc length: 2475 seconds
# 
# Revision: 1
# Processed by: cddbd v1.4b41PL1 Copyright (c) Steve Scherf et al.
# Submitted via: DiscPlay 4.0.4
# 
DISCID=8809a90a
DTITLE=Etta James - Respect yourself
DYEAR=1900
DGENRE=
TTITLE0=Respect yourself
TTITLE1=I'd rather go blind
TTITLE2=Shake yo' bottle
TTITLE3=Dust your broom
TTITLE4=Summer heat
TTITLE5=Drown in my own tears
TTITLE6=Can't turn your loose
TTITLE7=Rock me baby
TTITLE8=Stormy monday
TTITLE9=Baby what you want me to do
EXTD=
EXTT0=
EXTT1=
EXTT2=
EXTT3=
EXTT4=
EXTT5=
EXTT6=
EXTT7=
EXTT8=
EXTT9=
PLAYORDER=
